<?xml version="1.0" encoding="UTF-8"?><svg version="1.1" viewBox="0 0 24 24" xmlns="http://www.w3.org/2000/svg"><g fill="#000"><path d="M18.821 20.5H5.179v0c-2.031-.0023-3.6768-1.6481-3.679-3.679V7.179v-.0001c.0022-2.031 1.648-3.6768 3.679-3.679h13.6419l-.0001-.0001c2.0309.0022 3.6767 1.648 3.679 3.679v9.642h-.0001c-.0023 2.0309-1.6481 3.6767-3.6791 3.6789ZM5.179 4.5h-.0001C3.7 4.5016 2.5015 5.7001 2.4999 7.179v9.642l-.0001-.0001c.0016 1.4788 1.2 2.6773 2.6789 2.679h13.642 -.0001c1.4788-.0017 2.6773-1.2002 2.679-2.679v-9.642 0c-.0017-1.4789-1.2001-2.6774-2.679-2.6791Z"/><path d="M12 14.209h-.0001c-.1289.0002-.2528-.0492-.346-.138l-7.368-7.043 -.0001-.0001c-.1997-.1909-.2069-.5074-.016-.707 .1908-.1997.5073-.2069.707-.016l7.023 6.713 7.023-6.713h-.0001c.1996-.1909.5161-.1837.707.0159 .1908.1996.1836.5161-.016.707l-7.368 7.043v-.0001c-.0933.0888-.2172.1382-.346.138Z"/><path d="M4.7 17.833v-.0001c-.2762 0-.5001-.2239-.5001-.5 -.0001-.1359.0552-.2658.153-.3601l5.54-5.31v-.0001c.1993-.1911.5159-.1844.707.015 .191.1993.1843.5159-.0151.707l-5.537 5.309h-.0001c-.0936.0896-.2184.1395-.348.1389Z"/><path d="M19.3 17.832h-.0001c-.129 0-.253-.0498-.346-.1391l-5.538-5.308v0c-.1994-.1911-.2061-.5077-.0151-.707 .191-.1994.5076-.2061.707-.0151l5.538 5.308 -.0001-.0001c.1993.191.2061.5075.015.7069 -.0944.0984-.2248.154-.3611.154Z"/></g></svg>