<?xml version="1.0" encoding="UTF-8"?><svg version="1.1" viewBox="0 0 24 24" xmlns="http://www.w3.org/2000/svg"><path fill="#000" d="M8.1 21.034l0-.0001c-2.4358.0001-4.8203-.6993-6.87-2.015l-.0001-.0001c-.2322-.1495-.2993-.4589-.1498-.6911 .1033-.1606.2891-.2483.4787-.226l-.0001-.0001c1.7277.1996 3.4744-.1503 4.992-1l0 0c-1.5067-.4604-2.6922-1.6298-3.173-3.13l-.0001-.0001c-.0844-.263.0604-.5445.3234-.6289 .0081-.0027.0163-.0051.0245-.0072l-.0001-.0001c-1.1847-.9106-1.8802-2.3189-1.883-3.8131l-.0001-.0001c-.0001-.1846.0928-.3567.247-.458l0-.0001c.1489-.0989.339-.1118.5-.034l.091.049 0 0c-1.0128-1.5266-1.0717-3.4956-.1521-5.08l-.0001 0c.0834-.141.2297-.233.3929-.247l0-.0001c.1637-.0129.3233.0555.427.1829l0 0c1.9663 2.4105 4.8061 3.9454 7.9 4.2699 -.013-.144-.02-.289-.02-.435l-.0001.0007c0-2.6565 2.1535-4.81 4.81-4.81 1.2294 0 2.4122.4707 3.3054 1.3156l-.0001 0c.8165-.189 1.599-.5027 2.32-.93l-.0001 0c.2379-.1402.5444-.0609.6845.1771 .0722.1226.0887.2702.0454.4058l0-.0001c-.151.4716-.3744.9169-.662 1.32 .191-.067.378-.143.563-.225l0-.0001c.2033-.0902.4417-.0351.585.135l0 0c.1436.1701.1575.4147.0339.6l0-.0001c-.5602.8413-1.2552 1.5846-2.057 2.1999 0 .1 0 .208 0 .313l0 0c.069 6.9783-5.532 12.6913-12.5103 12.7604 -.0824.0008-.1648.0008-.2472 0Zm-4.573-1.929l0 0c1.4478.6135 3.0044.9295 4.577.9289l-.0001-.0001c6.431.0632 11.6957-5.0989 11.759-11.5299 .0007-.0764.0007-.1528 0-.2292 0-.179 0-.357-.012-.533l-.0001-.0001c-.0083-.1692.0696-.331.207-.43l-.0001 0c.3399-.2451.6605-.5159.959-.81l0-.0001c-.3077.0695-.6188.1229-.932.1599l-.0001 0c-.2743.0321-.5227-.1642-.5548-.4385 -.0229-.195.0705-.3854.2387-.4866l0-.0001c.3702-.2224.7004-.5053.977-.8371l-.0001 0c-.4757.1804-.9658.3202-1.465.4179l0-.0001c-.1689.0333-.3431-.0226-.461-.148l0 0c-1.4418-1.5342-3.8543-1.6091-5.3884-.1674 -.99.9302-1.41 2.317-1.1027 3.6403l-.0001-.0001c.0364.1523-.0006.3129-.1.434l0-.0001c-.0996.122-.2518.1886-.409.179l0 0c-3.3325-.1703-6.4659-1.638-8.7301-4.089l-.0001 0c-.5714 1.6403.0384 3.4594 1.4829 4.4239l0 0c.1864.1235.2681.3559.1999.569l0-.0001c-.0742.2075-.2706.3463-.491.347l0 0c-.4627-.0143-.9209-.0958-1.36-.242l0 0c.2996 1.5059 1.4734 2.6852 2.9779 2.9919l0 0c.2705.055.4452.3191.3901.5897 -.0376.1845-.1757.3322-.3572.3822l0-.0001c-.4198.0981-.8482.155-1.279.17l-.0001-.0001c.6667 1.1629 1.8956 1.8898 3.2359 1.914l-.0001-.0001c.2761.0042.4964.2315.4921.5077 -.0024.1512-.073.2932-.1922.3862l0-.0001c-1.3444 1.0594-2.9609 1.7174-4.663 1.898Z"/></svg>