<?xml version="1.0" encoding="UTF-8"?><svg version="1.1" viewBox="0 0 24 24" xmlns="http://www.w3.org/2000/svg"><g fill="#000"><path d="M21.938 7.71l-.0001-.0001c-.0174-.8179-.1715-1.6271-.4561-2.394l0 0c-.2371-.639-.6128-1.2175-1.1-1.694l-.0001-.0001c-.4782-.4882-1.0589-.8639-1.7-1.1l-.0001-.0001c-.7666-.2847-1.5755-.4388-2.393-.456 -1.104-.054-1.472-.066-4.289-.066 -2.817 0-3.185.012-4.29.062l-.0001 0c-.8179.0173-1.6271.1714-2.394.456l-.0001 0c-.639.237-1.2175.6127-1.694 1.0999l-.0001 0c-.4882.4781-.8639 1.0588-1.1 1.7l-.0001 0c-.2859.766-.4414 1.5745-.4601 2.3919 -.0501 1.104-.0621 1.472-.0621 4.29s.012 3.186.062 4.29l0 0c.0173.8178.1714 1.627.456 2.394l0 0c.237.6389.6127 1.2174 1.0999 1.6939l0 0c.4781.4881 1.0588.8638 1.7 1.0999l0 0c.7665.2846 1.5754.4387 2.393.4559 1.1.05 1.472.062 4.29.062s3.186-.012 4.29-.062l0-.0001c.8178-.0174 1.627-.1715 2.394-.4561l-.0001 0c1.2856-.4979 2.3021-1.5144 2.8-2.8l0-.0001c.2846-.7666.4387-1.5755.4559-2.393 .05-1.1.062-1.472.062-4.29s-.0151-3.1811-.0651-4.2851Zm-1 8.534l0-.0001c-.0125.7091-.1436 1.4111-.388 2.0769l0-.0001c-.3961 1.0233-1.2049 1.8325-2.228 2.229l-.0001 0c-.6662.2442-1.3686.3754-2.078.3879 -1.0851.05-1.4441.062-4.2441.062 -2.8 0-3.159-.012-4.244-.062l0 0c-.7092-.0125-1.4112-.1436-2.077-.388l0 0c-.5103-.1881-.9716-.4886-1.35-.879l0 0c-.3903-.3783-.6907-.8393-.879-1.349l-.0001-.0001c-.2443-.6662-.3755-1.3686-.388-2.078 -.0501-1.0851-.0621-1.4441-.0621-4.2441 0-2.8.012-3.159.062-4.244l-.0001 0c.0124-.7092.1435-1.4112.3879-2.077l-.0001 0c.188-.5103.4885-.9716.8789-1.35l-.0001 0c.3782-.3903.8392-.6907 1.349-.8791l0-.0001c.6661-.2443 1.3685-.3755 2.0779-.388 1.086-.0501 1.449-.0621 4.244-.0621s3.158.012 4.244.062l-.0001-.0001c.7091.0124 1.4111.1435 2.0769.3879l-.0001-.0001c.5102.188.9715.4885 1.3499.8789l-.0001-.0001c.3902.3782.6906.8392.8789 1.3489l0 0c.2442.6661.3754 1.3685.3879 2.0779 .05 1.085.062 1.444.062 4.244s-.012 3.159-.062 4.244Z"/><path d="M17.581 5.467l-.0001-.0001c-.5264-.0006-.9535.4256-.954.952 -.0006.5263.4256.9534.952.9539 .5263.0005.9534-.4257.9539-.952 0-.0007 0-.0014-.0001-.002l-.0001-.0001c-.0012-.5254-.4267-.9509-.9521-.952Z"/><path d="M12 7.073l-.0001 0c-2.7212 0-4.927 2.2058-4.927 4.927 0 2.7211 2.2058 4.927 4.927 4.9269 2.7211-.0001 4.927-2.2059 4.9269-4.9271l0 .0001c-.0027-2.72-2.2069-4.9244-4.9269-4.9272Zm0 8.854l-.0001-.0001c-2.1689-.0001-3.927-1.7582-3.927-3.927 0-2.1689 1.7581-3.927 3.927-3.927 2.1688 0 3.927 1.7581 3.927 3.927l0-.0002c-.0027 2.1676-1.7593 3.9242-3.9269 3.9271Z"/></g></svg>