<?xml version="1.0" encoding="UTF-8"?><svg version="1.1" viewBox="0 0 24 24" xmlns="http://www.w3.org/2000/svg"><path fill="#000" d="M23 12l0 .0004c0-6.0752-4.9249-11-11-11 -6.0752 0-11 4.9248-11 11 0 5.4105 3.9346 10.0177 9.2785 10.8644v0l-.0001-.0001c1.1383.1786 2.2976.1786 3.436 0v0l0-.0001c5.3573-.8248 9.3054-5.4445 9.2854-10.865Zm-12.141 9.935v-6.9 0c0-.2762-.2239-.5-.5-.5H8.193V12.5h2.166 -.0001c.2761 0 .5-.2239.5-.5V9.686c0-2.278 1.264-3.585 3.459-3.585l0 0c.6215.0081 1.2419.0538 1.8579.1369v1.652h-.824 -.019l0 0c-1.0767-.1068-2.043.6619-2.181 1.735l-.0001 0c-.0186.1325-.0223.2666-.0111.3999v1.975l0 0c0 .2761.2238.4999.5.4999h2.329l-.312 2.035h-2.017 -.0001c-.2762 0-.5.2238-.5.5 0 0 0 0 0 0v6.9l-.0001 0c-.7583.086-1.5238.086-2.282-.0001Zm3.282-.166v-6.234h1.946l0 0c.2493.0028.4626-.1785.5-.425l.465-3.035 0-.0001c.0414-.2731-.1464-.528-.4194-.5694 -.0248-.0038-.0497-.0057-.0747-.0057h-2.417v-1.484l0-.0001c.0016-.3017.1108-.5928.308-.821l0-.0001c.2471-.2176.5717-.3258.9-.3h1.324 -.0001c.2761 0 .5-.2239.5-.5v-2.589l0-.0001c.0002-.2455-.1778-.4548-.4201-.494l0 0c-.8031-.1299-1.6146-.2008-2.428-.212 -2.754 0-4.466 1.757-4.466 4.585v1.8149H7.6926h-.0001c-.2762 0-.5.2238-.5.5 0 0 0 0 0 0v3.035l0 0c0 .2761.2238.4999.5.4999h2.166v6.234l-.0001-.0001C4.4636 20.5857 1.0488 15.2538 2.2312 9.859c1.1824-5.3948 6.5143-8.8096 11.9091-7.6272 5.3947 1.1824 8.8095 6.5143 7.6271 11.9091 -.8358 3.8131-3.814 6.7913-7.6272 7.6271Z"/></svg>