<?xml version="1.0" encoding="UTF-8"?><svg version="1.1" viewBox="0 0 24 24" xmlns="http://www.w3.org/2000/svg"><g fill="#000"><path d="M15.011 17h-.0001c-4.1422.006-7.505-3.3469-7.511-7.489C7.4938 5.3688 10.8467 2.006 14.9888 2c4.1421-.0061 7.5049 3.3468 7.5109 7.4889 0 .0069 0 .0139 0 .0209v-.0001c-.0104 4.1318-3.3571 7.479-7.489 7.49Zm0-14v0C11.4211 2.9939 8.506 5.8991 8.5 9.4889c-.0061 3.5898 2.8991 6.5049 6.4889 6.5109 3.5898.006 6.5049-2.8992 6.5109-6.489 0-.0004 0-.0007 0-.001v.0001c-.0043-3.5854-2.9036-6.4942-6.4889-6.5102Z"/><path d="M5.5 22H2h-.0001c-.2762-.0001-.5-.2239-.5-.5 0 0 0 0 0 0v-19 0c-.0001-.2762.2238-.5001.4999-.5001h3.5 -.0001c.2761-.0001.5.2238.5.5v19 0c0 .2761-.2239.5-.5.5 -.0001 0-.0001 0-.0001 0Zm-3-1H5V3H2.5Z"/></g></svg>