<?xml version="1.0" encoding="UTF-8"?><svg version="1.1" viewBox="0 0 24 24" xmlns="http://www.w3.org/2000/svg"><g fill="#000"><path d="M11.058 15.759l-.0001 0c1.0161-.0631 1.9081-.6983 2.3-1.638l0-.0001c.5357-1.1226.754-2.3703.6309-3.608v-.452 0c0-.2762-.2239-.5-.5-.5 -3.145 0-4.738 1.2-4.738 3.571l0-.0001c-.1537 1.2881.7661 2.457 2.0543 2.6106 .0838.01.1682.0154.2526.0163Zm1.934-5.187l0 0c.1088 1.0437-.0639 2.0975-.5001 3.0519v.008c-.437.79-.864 1.127-1.431 1.127 -1.18 0-1.307-1.138-1.307-1.627 -.003-1.1321.378-2.4321 3.238-2.5601Z"/><path d="M7.866 8.278l0-.0001c-2.1468.8789-3.5232 2.9973-3.454 5.316 0 3.132 1.946 5.156 4.959 5.156l0 0c1.8038.104 3.5612-.5957 4.8-1.911l-.0001-.0001c.4018.6369.9138 1.1973 1.5119 1.6549l-.0001-.0001c.4176.2767.9739.2121 1.317-.153 .579-.519 1.657-1.437 2.309-1.986l0-.0001c.3498-.3918.3802-.9741.0729-1.4l-.0001-.0001c-.0071-.0118-.0148-.0231-.0231-.034 -.105-.145-.216-.281-.325-.416l-.0001-.0001c-.5116-.506-.7948-1.1986-.784-1.918v-4.774c0-2.028 0-3.944-1.539-5.438l-.0001-.0001c-1.3041-1.0958-2.9654-1.6741-4.668-1.625 -1.858 0-6.27.483-7.118 4.948l-.0001 0c-.109.5746.2684 1.1288.843 1.2378 .0188.0035.0378.0066.0569.0091l2.966.323 0-.0001c.4962-.0889.8805-.4844.9549-.9831l-.0001 0c.1858-.8771 1.0018-1.4739 1.894-1.3851l0-.0001c.3284-.0279.6539.0806.9.3l0 0c.383.6165.5432 1.3456.454 2.0659l-.381.042 -.0001 0c-1.6212.0901-3.2205.4168-4.747.9699Zm5.68-.069l0-.0001c.2536-.0292.4446-.2447.443-.5v-.189l0-.0001c.1475-1.0675-.119-2.1509-.7451-3.028l0 0c-.4306-.4068-1.0085-.6202-1.6-.591l-.0001-.0001c-1.3706-.1046-2.605.8264-2.881 2.173l-.0001 0c-.0142.0665-.0417.1294-.081.185l-2.693-.3c-.05-.011-.087-.038-.084-.062 .711-3.745 4.529-4.149 6.138-4.149l-.0001 0c1.4422-.0483 2.8528.4293 3.9689 1.3439 1.235 1.2 1.235 2.829 1.235 4.719v4.779l0-.0001c-.0106.948.3509 1.8624 1.0069 2.547 .094.117.19.235.282.359 .049.086.06.153.095.123 -.626.525-1.717 1.453-2.3 1.976 -.042.037-.083.058-.071.08l-.0001-.0001c-.5382-.423-.9944-.9408-1.346-1.5281l-.252-.37 0 0c-.0851-.1225-.2204-.2006-.369-.213l0 0c-.1497-.0183-.2988.0373-.4.1489l0-.0001c-1.0857 1.3748-2.7729 2.1348-4.522 2.037 -2.479 0-3.959-1.554-3.959-4.156l0 0c-.0735-1.92 1.0677-3.6788 2.8509-4.3941l0-.0001c1.4331-.5106 2.932-.8137 4.451-.9001Z"/><path d="M23.794 18.381c-.523-.595-3.211-.788-4.748.31l0-.0001c-.2248.1607-.2768.4732-.1161.698 .1607.2247.4732.2767.698.116l-.0001 0c1.0205-.5873 2.2273-.7609 3.372-.4851l0-.0001c-.0145 1.1872-.4921 2.3218-1.331 3.162l0-.0001c-.2185.1688-.2588.4828-.0899.7013 .1688.2184.4828.2587.7013.0898 .0119-.0093.0234-.019.0344-.0293 1.4159-1.202 2.0249-3.844 1.4789-4.563Z"/><path d="M21.859 20.024l-.0001-.0001c-.1321-.2424-.4356-.332-.678-.2 -.187.1-.374.2-.558.292l0-.0001c-6.3656 3.2636-14.0266 2.6641-19.807-1.55l0 0c-.2138-.1751-.529-.1438-.704.0699 -.1751.2137-.1438.5289.0699.704l-.0001-.0001c3.4395 2.5035 7.5778 3.8647 11.8319 3.892l-.0001 0c3.1532-.0161 6.2577-.7793 9.059-2.227 .193-.1.388-.2.583-.3l0-.0001c.2435-.1302.3355-.4331.2053-.6767 -.0008-.0015-.0016-.003-.0024-.0044Z"/></g></svg>