<?xml version="1.0" encoding="UTF-8"?><svg version="1.1" viewBox="0 0 24 24" xmlns="http://www.w3.org/2000/svg"><path fill="#000" d="M12 20.55c-.3 0-7.279-.006-9.115-.5l0 0C1.7212 19.7377.8122 18.8287.5 17.665l-.0001-.0001c-.3469-1.8681-.5143-3.7651-.5-5.665l-.0001-.0001c-.0143-1.9003.1532-3.7976.5-5.666l-.0001 0c.3119-1.1642 1.221-2.0736 2.3849-2.386 1.836-.492 8.819-.5 9.115-.5 .296 0 7.279.006 9.115.5l0 0c1.163.3141 2.0713 1.2228 2.385 2.386l0 0c.3459 1.8685.5133 3.7657.4999 5.6659l0 .0001c.0133 1.9002-.1541 3.7974-.5001 5.6659l0-.0001c-.3142 1.1639-1.2239 2.0728-2.388 2.386 -1.833.4918-8.812.4978-9.112.4978Zm0-16.1c-.072 0-7.146.006-8.857.464l0-.0001c-.8192.22-1.459.8598-1.679 1.679l0-.0001C1.1439 8.377.9885 10.187.9999 11.9998l0-.0001c-.0115 1.8127.1438 3.6227.4639 5.407l-.0001-.0001c.22.8191.8598 1.4589 1.679 1.679 1.711.458 8.785.464 8.857.464 .072 0 7.146-.006 8.857-.464l0-.0001c.8191-.2201 1.4589-.8599 1.679-1.679l0-.0001c.3195-1.7844.4748-3.5943.464-5.407l-.0001 0c.0108-1.8128-.1445-3.6227-.464-5.407v0l0 0c-.2201-.8192-.8599-1.459-1.679-1.6791 -1.7111-.4581-8.7861-.4641-8.8571-.4641Zm-2.3 11.5h-.0001c-.2762-.0001-.5-.2239-.5-.5 0 0 0-.0001 0-.0001v-6.9l-.0001 0c0-.2762.2238-.5.5-.5 .0877 0 .1739.0231.2499.0669l5.975 3.45 0 0c.2391.138.321.4438.1829.683 -.0439.0759-.107.139-.183.1829l-5.975 3.45 0-.0001c-.0761.0438-.1623.0669-.25.067Zm.5-6.534v5.168L14.675 12Z"/></svg>